<svg width="32" height="32" viewBox="0 0 32 32" fill="none" xmlns="http://www.w3.org/2000/svg">
  <path d="M22 10C19.5 10 17.5 11.5 16 13.5C14.5 11.5 12.5 10 10 10C6.5 10 4 12.5 4 16C4 19.5 6.5 22 10 22C12.5 22 14.5 20.5 16 18.5C17.5 20.5 19.5 22 22 22C25.5 22 28 19.5 28 16C28 12.5 25.5 10 22 10ZM10 20C7.5 20 6 18.5 6 16C6 13.5 7.5 12 10 12C12 12 13.5 13 14.5 14.5L16 16.5L17.5 14.5C18.5 13 20 12 22 12C24.5 12 26 13.5 26 16C26 18.5 24.5 20 22 20C20 20 18.5 19 17.5 17.5L16 15.5L14.5 17.5C13.5 19 12 20 10 20Z" fill="white"/>
</svg>
